# xmcd
#
# Track frame offsets: 
#        150
#        20520
#        39420
#        57563
#        85799
#        101282
#        115985
#        152325
#        176130
#        190994
#        209193
#        224158
#        242861
#        261524
#        278685
#        305034
#        324979
#
# Disc length: 4770 seconds
#
# Revision: 0
# Processed by: cddbd v1.5.2PL0 Copyright (c) Steve Scherf et al.
# Submitted via: ExactAudioCopy v1.1
#
DISCID=0112a011
DTITLE=Various Artist - Akella Presents - vol.104 - Modern Electric B
DTITLE=lues  CD1
DYEAR=2017
DGENRE=Blues
TTITLE0=Colin James - Goin' Away
TTITLE1=Lal And The People - Out Of The Blue
TTITLE2=Delbert McClinton - Gotta Get It Worked On
TTITLE3=TW Henderson - It Wasn't Me Who Brought The Tears
TTITLE4=Shane Dwight - Dimples
TTITLE5=Pete Gage - Born to roam
TTITLE6=5Live - Too Through With You
TTITLE7=Backtrack Blues Band - Man of Steel
TTITLE8=Jim Gustin and Truth Jones - Crazy Little Woman
TTITLE9=Cadillac Johnson - Pentecost Mane
TTITLE10=The Mick Pini Band - Looking For Somebody
TTITLE11=Jason Buie - Government Man
TTITLE12=John McNamara - Blind Man
TTITLE13=Bluehouse Project - Coal Mine
TTITLE14=Mark May - Gangsta's Blues
TTITLE15=Bihlman Bros. - The Hand That Loves
TTITLE16=Julian Fauth - Loved And Lost
EXTD=
EXTT0=
EXTT1=
EXTT2=
EXTT3=
EXTT4=
EXTT5=
EXTT6=
EXTT7=
EXTT8=
EXTT9=
EXTT10=
EXTT11=
EXTT12=
EXTT13=
EXTT14=
EXTT15=
EXTT16=
PLAYORDER=
